<?xml version="1.0" encoding="UTF-8"?>
<svg version="1.1" viewBox="0 0 2048 2048" width="128" height="128" xmlns="http://www.w3.org/2000/svg">
<path transform="translate(210,767)" d="m0 0h14l26 3 17 5 19 9 14 11 11 9 8 4h8l4-1h27l23 5 16 7 16 9 13 10 14 14 10 15 11 21 6 19 3 14 1 12v10l-4 16-2 5 1 8 6 11 9 16 8 19 5 18 2 16v18l-3 19-5 15-8 16-8 12-12 14-7 7-11 9-11 7-14 7-19 7-9 16-10 15-7 9-11 12-10 9-14 10-14 8-20 9-11 4-21 2-16-2-18-6-25-13-11-7-12-9-7-8-11-2h-36l-15-3-19-6-15-8-11-8-10-9-7-7-11-16-12-23-4-11-5-22-1-15v-11l3-8 2-11v-6l-16-31-10-19-4-11v-54l12-25 10-16 10-14 15-15 16-11 16-8 10-3 7-5 9-13 13-21 10-11 5-6 11-9 12-9 19-10 19-6zm0 32-14 3-13 5-15 8-11 9-9 9-9 14-5 11-4 13-2 15-1 17-1 58v29l3 16 11 11 8 5 18 7 4 1 2-22-1-20-1-25 1-65 6-12 7-6 20-13 18-10 19-10 21-12 11-6 3-3v-7l-3-5-5-4-12-5-21-5-9-1zm121 39-12 3-17 6-10 6-9 5-17 10-20 11-14 8-25 15-4 4-6 12-1 9v21l3 7 8-1 12-6 20-12 16-10 13-8 23-13 16-9 12-6 9 1 19 9 10 6 12 6 24 14 15 9 23 13 3 2h3l2-11v-11l-4-17-6-17-7-13-11-13-7-7-10-7-17-9-15-5-12-2zm-243 53-11 6-16 14-9 10-9 14-8 19-4 22 1 11 1 10 4 14 7 16 7 10 8 8 5 6 22 15 15 9 27 15 13 8 19 11 9 5 9 2 10-2 18-10 6-5 2-7-4-6-13-8-44-24-14-8-17-10-10-7-8-7-6-10-2-5-2-36 1-45v-25l-2-10zm224 32-9 4-13 7-8 6 1 5 6 9 14 8 10 6 19 11 13 8 19 10 9 6 12 6 11 10 4 11 1 7v107l1 2h8l12-6 13-12 9-9 8-14 8-18 3-14v-25l-1-11-6-18-6-11-9-12-8-8-18-13-29-17-15-8-11-6-21-12-16-8zm-68 41-10 4-19 10-8 6-8 10-2 6-1 17-1 12 3 11 7 11 5 5 12 7 10 6 13 5 14-3 10-5 21-12 4-5 3-8 2-12v-25l-4-11-8-9-11-8-16-9-8-3zm83 46-2 5-1 125-3 9-8 9-15 8-19 12-23 13-33 17-5 3 1 6 3 6 6 5 18 7 12 3 8 1h21l12-3 19-7 11-7 11-9 11-11 9-15 5-15 3-15 1-11 1-99-2-13-7-9-11-7-12-6-6-2zm-35 73-16 8-18 11-19 11-15 9-24 14-17 8-11 3h-6l-15-6-10-7-19-9-19-12-11-7-10-7-17-9-6-2-2 10 1 18 4 19 7 16 8 12 9 10 15 12 16 8 14 4 7 1h32l15-5 26-12 23-13 13-8 27-15 15-9 7-7 4-13 1-6v-10l-3-11-4-6z" fill="#0D0D0D"/>
<path transform="translate(677,887)" d="m0 0h32l22 3 15 4 12 5 16 9 13 11 8 8 10 15 8 16 5 15 4 22 1 11 1 40-1 26-3 24-6 20-8 16-12 16-13 13-12 9-16 8-16 5-21 4-26 2-24-2-21-4-14-5-12-6-14-10-15-15-11-17-8-17-4-13-4-21-1-10-1-25v-19l1-24 3-19 6-21 8-17 10-15 11-12 13-10 14-8 15-6 18-4zm11 42-15 2-16 6-12 7-7 6-10 15-7 17-3 16-2 23v44l2 18 5 19 8 14 11 12 8 6 15 8 17 4h22l17-4 15-8 10-8 7-8 7-12 4-14 3-22v-63l-2-21-5-16-7-12-9-10-8-7-13-7-16-4-9-1z" fill="#0D0D0D"/>
<path transform="translate(1712,892)" d="m0 0h12l9 3 6 9 7 19 14 40 11 33 15 42 12 35 15 43 15 41 8 20v5l-8 1h-35l-10-1-5-4-18-54-2-3-113-1-3 12-6 18-5 14-3 15-5 3h-48l-5-2 1-8 6-15 16-47 11-31 11-30 9-27 17-48 15-43 11-31 5-5 8-2zm-13 53-7 24-9 33-11 35-8 23-6 18v2l84 1 3-1-2-10-11-36-9-29-16-49-6-10z" fill="#0D0D0D"/>
<path transform="translate(973,965)" d="m0 0h25l19 3 16 7 12 9 10 10 7 10 7 15 4 14 2 18v54l-2 15-6 19-8 12-9 11-10 10-11 7-15 5-16 3h-30l-17-4-15-8-12-8-8-7 1 2 2 31v61l-4 3-4 1h-12l-23-1-8-2-2-4-1-8v-272l3-2 12-1h22l8 2 4 4v17l16-10 14-9 15-5zm-11 38-12 3-8 6-12 12-5 9-4 11-3 13-1 21 1 18 4 17 6 12 9 10 11 8 11 4 6 1h16l12-4 11-8 8-8 5-10 3-15 1-17v-20l-2-23-5-13-5-9-8-9-10-6-5-2-6-1z" fill="#0C0C0C"/>
<path transform="translate(1188,965)" d="m0 0h38l19 3 13 5 13 9 9 7 12 16 7 15 4 12 3 18 1 13v24l-5 5-6 1h-127l-11 2-1 5 6 20 8 15 9 9 8 5 10 3 14 1 12-2 16-8 8-7 14-14 4-1 9 4 16 9 4 5-1 8-6 8-9 9-13 10-12 6-19 5-13 2-12 1h-12l-20-2-16-4-16-8-10-8-8-8-8-11-8-16-5-17-2-14v-47l3-21 5-15 6-12 7-9 9-10 10-8 14-7 15-4zm11 32-12 4-11 7-8 11-6 12-4 14v8l4 4 11 2h51l26-2 4-2v-9l-5-16-8-16-5-6-10-7-10-4z" fill="#0E0E0E"/>
<path transform="translate(1452,964)" d="m0 0h15l16 2 14 5 11 8 10 10 8 13 5 15 3 22 1 18v118l-1 6-2 1h-46l-5-2v-109l-1-27-5-15-7-11-7-6-9-4-5-1h-17l-10 3-11 8-7 8-4 10-2 10-1 11-1 123-6 2h-37l-8-1-3-4v-205l3-4 37 1 8 3 3 3 3 12v3l6-3 13-12 6-4 15-5z" fill="#0E0E0E"/>
<path transform="translate(1872,893)" d="m0 0h176v40l-63 1v48l-1 160 64 1v39h-174l-6-3v-15l-1-6v-11l1-4h63l-1-17v-121l1-73-17 1h-39l-6-3-1-2v-32l1-2z" fill="#0E0E0E"/>
</svg>
