<?xml version="1.0" encoding="UTF-8"?>
<svg version="1.1" viewBox="0 0 1580 1976" width="395" height="494" xmlns="http://www.w3.org/2000/svg">
<path transform="translate(395,849)" d="m0 0h720l1 1v274l-2 1h-719l-1-19v-207z" fill="#7ABF4B"/>
<path transform="translate(1037)" d="m0 0h48l-3 2-47 11-37 10-36 11-34 12-36 14-41 18-48 24-19 10-24 14-20 12-22 14-22 15-17 12-19 14-18 14-13 11-14 11-13 12-8 7-10 9-13 12-43 43-7 8-12 13-7 8-11 13-9 11-12 15-10 13-9 12-13 18-22 33-11 17-15 25-16 28-18 35-15 31-15 35-14 36-17 50-12 42-9 37-7 33-7 41-5 38-4 43-2 40-1 90-1 47-3 1h-185l-1-1v-131l3-46 5-45 7-45 9-45 13-52 10-33 12-36 9-25 14-34 12-27 12-26 10-19 11-21 14-24 13-22 14-22 8-12 11-16 13-18 10-13 12-16 9-11 14-17 9-10 9-11 15-16 3-4h2l2-4 41-41h2v-2l8-7 4-2v-2l8-7 15-13 14-12 14-11 16-13 19-14 18-13 24-16 20-13 25-15 17-10 23-13 42-21 36-16 32-13 30-11 36-12 30-9 52-13 45-9 38-6 32-4z" fill="#3599CC"/>
<path transform="translate(1266,849)" d="m0 0h186l2 1v124l-3 49-5 46-6 40-7 37-8 36-12 45-12 38-12 34-11 28-13 30-11 24-13 27-24 44-17 28-15 24-17 25-13 18-12 16-10 13-8 10-13 16-13 15-27 30-9 9-7 8-17 17-8 7-11 11-8 7-11 10-11 9-15 13-15 12-30 23-17 12-19 13-26 17-23 14-26 15-16 9-32 16-25 12-32 14-41 16-50 17-38 11-41 10-50 10-40 6-44 5-38 3-37 2-12 1v-2l16-5 43-10 33-9 30-9 48-17 37-15 42-19 38-19 46-26 26-16 30-20 20-14 19-14 14-11 16-13 14-11 12-11 11-9 7-7 8-7 16-15 31-31 7-8 12-13 9-11 6-7h2l2-4 9-11 14-17 24-32 12-17 11-16 10-15 13-21 16-27 12-21 7-14 9-17 11-23 16-36 12-30 11-30 12-36 10-35 11-44 10-50 7-46 4-37 3-44 1-25 1-103 1-26z" fill="#3599CC"/>
<path transform="translate(670,1223)" d="m0 0h176l-1 15-5 38-6 34-6 27-8 31-12 38-9 25-14 34-13 28-12 24-13 23-9 15-15 24-12 17-8 11-12 16-13 16-8 10-12 14-22 24-28 28-8 7-11 10-11 9-13 11-17 13-16 12-25 17-17 11-20 12-18 10-27 14-29 14-39 16-41 14-28 8-32 8-29 6-39 6-37 4-30 2h-67l-46-3-8-1v-2l45-7 35-7 36-9 39-12 38-14 28-12 34-16 23-12 24-14 21-13 18-12 17-12 12-9 14-11 10-8 13-11 8-7 14-12 11-11 8-7 11-11 7-8 13-14 7-8 11-13 20-25 13-18 7-10 9-13 12-19 9-15 12-21 8-15 9-19 8-16 12-28 11-29 12-36 10-36 9-41 6-37 4-31 1-10z" fill="#7ABF4B"/>
</svg>
