<?xml version="1.0" encoding="UTF-8"?>
<svg version="1.1" viewBox="0 0 2048 1304" width="281" height="179" xmlns="http://www.w3.org/2000/svg">
<path transform="translate(0)" d="m0 0h2048v1304h-2048z" fill="#FDFEFD"/>
<path transform="translate(1496,195)" d="m0 0h89l19 1-9 19-15 29-12 22-17 32-12 22-29 58-11 23-3 7h2l2-4 6-10 6-8 8-11 13-18 7-6 3 2 15-3 4-2 2 2-1 8-8 19-16 33-11 23-5 10-1 5 5-1 5-5 6-7h2l2-5 12-19 10-16 6-2v3l2 1-1 4-10 17-16 27-10 18-9 15-17 28-11 17-14 21-11 17-10 15-11 16-13 17-10 13-11 13-12 14-15 16-12 12-8 7-13 11-15 10-23 11-14 4-13 2-16 1h-266l-22-3-14-5-15-8-13-10-10-9-12-14-11-16-10-17-13-26-11-27-11-33-15-56-21-85-9-34-13-47-6-23-1-5-8 7-7 7-7 8-10 11-7 8-12 14-20 25-11 13-12 15-9 15-6 15-11 34-15 47-12 39-10 33-10 26-8 17-10 16-11 16-23 23-17 12-14 8-17 7-21 7-29 6-24 3-69 1-47-1 2-5 15-28 10-20 10-19 16-32 9-17 4-9 15-50 10-28 3-7 2-7 3-8v-10l-2-5-7 3-9 12-7 9-6 9-11 23-15 30-6 18-11 25-10 26-3 3 1-6 17-45 15-38 13-31 11-24 14-29 15-28 10-18 16-26 16-25 13-18 14-18 10-13 9-11 24-28 12-13 12-11 10-9 17-13 14-10 15-10 15-7 21-7 25-5h21l17 3 17 8 17 11 11 9 10 9 7 7 4 1 13-8 9-5-13 5-1 1h-5l-2-4 5-4-1-3-10-1-2-3 2-3-4-2-6-1-10-2-2-1v-2l-6-2-5-3-1-7 3-1 5-1 21-1h130l25-1 24 1 5 2 2 4-2 3 9 3 15 9 14 12 11 12 14 19 13 23 13 27 4-2 2-2v-9l3-4 1-7 4-5 2-11-3-14-4-8v-2h-2l-3-5-9-10-4-6 1-3 8 7 9 9 11 14 11 16 13 23 14 29 10 28 17 58 8 30 22 91 17 63 8 27h2l8-10 6-8 7-8 7-7 7-8 12-13 10-13 12-13 13-17 11-14 8-17 12-38 6-21 9-29v-3l-4 6-6 15-4 11-8 13-6 12-11 12-8 4-5-3-2-3-5 1-4 3h-2l-2 4-7 11-8 18-5 17-8 16-2 2 2-9 14-40 12-38 14-47 20-65 10-30 9-21 8-15 10-15 10-13 9-10 8-7 16-12 23-12 27-9 22-5 19-3z" fill="#279BDA"/>
<path transform="translate(1496,195)" d="m0 0h89l19 1-9 19-15 29-12 22-17 32-12 22-29 58-11 23-3 7h2l2-4 6-10 6-8 8-11 13-18 7-6 3 2 15-3 4-2 2 2-1 8-8 19-16 33-11 23-5 10-1 5 5-1 5-5 6-7h2l2-5 12-19 10-16 6-2v3l2 1-1 4-10 17-16 27-10 18-9 15-17 28-11 17-14 21-11 17-10 15-11 16-13 17-9 12-4 2-1 2h-2v2h-2v2l-10 8-4 5h-2l-2 4-15 9-11 7-13 10-8 7-12 6-10 8-9 7-10 6-15 7-8 1 4-4 16-8 9-6h2l2-5 24-24 9-11 12-17 12-19 10-16 14-25 12-21 15-29 9-19-6 3-5 5-9 5-5 6h-2l-1 3-4 1-4 5-12 8-15 3-8 2h-13l-7 1v4l-6 3-4-1-1-1-16 3v-2l-9-2-7-5-2-5-1-6h-1v-5h-2l1-4h-2l-6 16-14 39-12 29-12 26-12 23-11 18 1 7-4-2-7-10-9-17-8-20-2-4v-7l5-5 11-14 7-8 7-7 7-8 12-13 10-13 12-13 13-17 11-14 8-17 12-38 6-21 9-29v-3l-4 6-6 15-4 11-8 13-6 12-11 12-8 4-5-3-2-3-5 1-4 3h-2l-2 4-7 11-8 18-5 17-8 16-2 2 2-9 14-40 12-38 14-47 20-65 10-30 9-21 8-15 10-15 10-13 9-10 8-7 16-12 23-12 27-9 22-5 19-3z" fill="#279BDA"/>
<path transform="translate(730,310)" d="m0 0h4l-2 4-15 15-7 8-24 28-11 13-11 14-12 16-11 14-10 14-28 42-15 24-14 24-17 28-13 22-16 29-7 14-2 9v10l4 1 6 1 1 3 2 1v2l4 2 1 6h2l5 15-1 3-1 7h-2l-1 7-9 12-14 14-6 7-4 4-4 7h-4v2l-25 4-10 1-69 1v-2l-5-1 2-11 9-41 9-45 1-16 8-20 8-16 12-22 8-16 17-35 31-62 7-10 3-8 6-8 1-4h2l2-5 9-17 5-10 5-7 2-4h2l2-4 4-6 6-15 5-5 7-8h2l-1 5 4 2-2 4h3l1 4-1 2h10l7 1 1 4-3 3h-2v2h13l8-8 7-3 3-3 7-3h7v2l3-2h5l2 3v5l4-2 2-4h4l2 1h7l10-4 12-6 14-11 11-9 14-10 5 1 4-3z" fill="#1362A7"/>
<path transform="translate(484,839)" d="m0 0h62l5 10 5 13 10 30 7 20 7 19 4 12 8 22 7 21 4 11 4 10 7 20 8 21 8 24v6h-56l-4-9-6-20-7-23-1-1h-84l-3 8-6 17-5 20-3 6-2 2h-57l3-9 5-13 4-12 5-12 8-24 6-16 6-15 7-20 6-15 7-21 3-8 7-18 7-20 6-17 5-14z" fill="#030304"/>
<path transform="translate(852,839)" d="m0 0h93l22 2 19 5 12 6 12 10 7 10 5 10 5 14 1 6v21l-2 11-6 17-9 13-10 10-13 9-13 5-12 4-22 3h-35v83h-54z" fill="#030305"/>
<path transform="translate(1440,510)" d="m0 0h2l-2 6-16 33-12 22-12 21-16 27-20 30-10 13-12 13-9 8v2l-7 6-3 5-8 5-4 3-18 9 7-1 17-8 11-7 13-11 10-6 8-4 7-7 17-12 15-9 6-4 1-2h2l2-4 10-9h2v-2h2v-2h2l2-4 2-1-2 5-10 11-9 11-7 7-7 8-15 15-8 7-13 11-15 10-23 11-14 4-13 2h-212l-20-1 1-2 7-4 15-5 16-7 16-9 34-20 17-12 18-14 12-8 5-1v-6l-2-4-2-19 2 1 5 17 1 8 5 12 6 14 11 20 5 6 2 1-2-3 1-6 15-25 12-24 13-30 11-29 12-33 3-9 3 1-1 4h2l2 4 2 10 4 4 5 3 8 1v2l16-3 1 2 6-1 3-1v-4l7-2h15l9-3 12-2 10-7 5-5 4-2 5-4 5-6 10-5 4-5z" fill="#1362A7"/>
<path transform="translate(727,835)" d="m0 0h36l20 3 6 2 10 2 4 4v47l-5-2-16-8-17-4-9-1h-24l-10 4-9 6-4 5-2 4v9l4 8 9 8 15 8 24 11 16 8 12 8 12 11 6 8 5 10 3 11v29l-4 14-7 11-8 9-14 9-10 5-15 5-18 3h-35l-24-3-11-3-5-4-9-4-2-2v-49l5 2 15 9 8 4 11 3 6 2 11 2h20l11-2 10-6 7-8 1-3v-12l-4-6-5-5-10-7-16-8-20-9-14-7-12-9-11-10-8-12-4-12-2-10v-12l2-13 4-11 9-14 9-9 13-8 19-7 13-3z" fill="#030304"/>
<path transform="translate(1068,503)" d="m0 0h2l12 36 13 37 13 32 12 23 12 20 7 10 8 10-6 7-17 10-33 17-6 3h-10l-14-7-9-7-9-9-9-11-13-16-10-15-12-21-12-22-12-25-13-29-8-20v-10l7 6 3 2v2l7 1-3 4 5 2 7-1h4l4-1-1-4 4-3 7-2 5-1v-5h-2v-2l10-2h14l9 1h7l2 4 12-2 9-7z" fill="#1262A7"/>
<path transform="translate(1143,839)" d="m0 0h34l7 9 11 18 14 22 10 16 11 17 26 40 12 19 13 21 14 22 10 15 3 2-2-10v-191h28v234l-1 5h-33l-7-10-11-18-10-15-13-20-11-17-12-19-26-40-15-23-13-21-12-19-1-1v198l-2 5h-25v-238z" fill="#030405"/>
<path transform="translate(938,206)" d="m0 0 33 1 5 2 2 4-2 3h2v2l6 2-4 1h-10l-14-4-9 2-8 2-4 3-2 2 14 11 13 12 11 13 14 20 12 20 12 23 8 19 3 10-7-6-24-12-6-5-10-1-4-1-10 1h-9l-7 2-13 1h-18l-8-2-2-1-14-2-5-1v2l-6-2-6-4-3-1-8-14-10-18-12-20-4 2-12 12h-3l-9-11-8-11-1-5 3-3 11-7 9-5-13 5-1 1h-5l-2-4 5-4-1-3-10-1-2-3 2-3-4-2-6-1-10-2-2-1v-2l-6-2-5-3-1-7 3-1 5-1 21-1h130z" fill="#1362A7"/>
<path transform="translate(730,310)" d="m0 0h4l-2 4-15 15-7 8-24 28-11 13-11 14-11 15-5 2-8 8-8 4-7 2-8 8-6 4-6 7h-2l-2 5-10 10-9 5h-2l-2 6-11 5 1 3 7 2v2h-3v4l-4 2h-8v-3l-5 3h-2v-2l-4-1-1-3-7 3-4 4-2-3v-2l-6 4-6 8h-2l-3-10-3 1-6-1-9 4-7-2-7 1-11 8h-2l2-6 19-38 7-10 3-8 6-8 1-4h2l2-5 9-17 5-10 5-7 2-4h2l2-4 4-6 6-15 5-5 7-8h2l-1 5 4 2-2 4h3l1 4-1 2h10l7 1 1 4-3 3h-2v2h13l8-8 7-3 3-3 7-3h7v2l3-2h5l2 3v5l4-2 2-4h4l2 1h7l10-4 12-6 14-11 11-9 14-10 5 1 4-3z" fill="#1071B4"/>
<path transform="translate(1585,195)" d="m0 0h33l66 2-5 14-11 21-10 17-14 26-16 28-10 17-16 30-28 48-2 2-2-4v-3l-6 3-12 20-12 19h-2l-2 4-5 6-5 4h-5l2-8 12-24 13-28 11-23 4-12-1-5-7 3-13 2-3-2-8 9-13 18-8 11-6 8-2 4-4 6-3 1 2-6 8-16 16-33 20-40 12-22 17-32 12-22 15-29 6-12-18-1z" fill="#B9E8FE"/>
<path transform="translate(1397,839)" d="m0 0h120v25h-93v80h86v25h-87l1 83 100 1v25h-127z" fill="#030305"/>
<path transform="translate(1545,840)" d="m0 0h167l-1 20-2 4-67 1-1 213h-27l-1-213-68-1z" fill="#030202"/>
<path transform="translate(1068,503)" d="m0 0h2l12 36v18l1 5-10 8-9 4-4 1h-9l-7 1-5 3-10 3-11 4h-16l-9-1-2 3-6-5-3 1 4 8 1 6-3-4-9-19-13-29-8-20v-10l7 6 3 2v2l7 1-3 4 5 2 7-1h4l4-1-1-4 4-3 7-2 5-1v-5h-2v-2l10-2h14l9 1h7l2 4 12-2 9-7z" fill="#1071B4"/>
<path transform="translate(443,491)" d="m0 0 3 2 1 8-1 10-3 6-3 10-7 18-9 28-11 37-8 16-15 29-14 28-10 19-11 21-8 14 3 1h-18l1-8 8-31 9-29 7-20 3-1 8-20 12-29 6-16 6-15 6-11 13-27 6-10 8-12 7-8 5-7z" fill="#9CD8FB"/>
<path transform="translate(1440,510)" d="m0 0h2l-2 6-9 19h-2l-3 4h-2l-2 4-9 11-7 6-1 3h-2v2l-5 5-11 9-11 8-17 6-16 4-17 1-5 3-11 1-6 5-18 6-6 4h-3l-1-2-7 5h-2l1-5 8-19 13-35 8-22 3-9 3 1-1 4h2l2 4 2 10 4 4 5 3 8 1v2l16-3 1 2 6-1 3-1v-4l7-2h15l9-3 12-2 10-7 5-5 4-2 5-4 5-6 10-5 4-5z" fill="#1072B5"/>
<path transform="translate(865,274)" d="m0 0 10 2 10 5 10 1 6 4 11 3v4h7l4 2 11 2-1 3 3-1v-2l5 1v2h14l21 2 3 1v4l4 1 15 8 5 4v2l4 2 3 3 10 25-1 2-4-5-26-13-6-5-10-1-4-1-10 1h-9l-7 2-13 1h-18l-8-2-2-1-14-2-5-1v2l-6-2-6-4-3-1-8-14-10-18-5-8v-2l6-4 3 1 4-2z" fill="#1072B5"/>
<path transform="translate(1585,263)" d="m0 0 4 1 1 3v19l-17 52-11 28-11 25-2 7v8l6-4 6-7 12-23 13-26 8-11 9-11 10-9 6-7 9-11 2-2-1 6-12 21-15 28-28 48-2 2-2-4v-3l-6 3-12 20-12 19h-2l-2 4-5 6-5 4h-5l2-8 12-24 13-28 11-23 4-12-1-5-7 3-13 2-3-2-8 9-13 18-8 11-6 8-2 4-4 6-3 1 2-6 8-16 16-33 18-36 5-2 6-8 9-14 6-12 7-10 8-7z" fill="#9CD8FB"/>
<path transform="translate(1335,408)" d="m0 0 1 4-14 45-6 21-9 27-8 15-13 16-11 14-12 13-10 13-12 13-14 15-5 6-4 4 2-7h-3l1-7 8-21 11-34 2 1 9-19 6-19 8-16 6-9 5-5 5-3 4 1 4 4 3 1 8-5 9-10 10-19 6-10 6-17 5-10z" fill="#9CD8FB"/>
<path transform="translate(906,879)" d="m0 0h21l19 3 10 3 8 7 4 8 3 8v13l-3 15-6 9-5 4-9 3-15 2-3 1h-23l-1-2z" fill="#FBFDFD"/>
<path transform="translate(947,206)" d="m0 0h32l24 2 15 4 16 6 15 8 8 6 1 6 10 11 4 5v3h2l5 10 3 16-3 11-3 3-2 9-2 2v9l-5 5-3-1-16-33-12-20-14-18-11-12-14-11-16-9-5-2 1-4-2-3-4-1-24-1z" fill="#9CD8FB"/>
<path transform="translate(938,206)" d="m0 0 33 1 5 2 2 4-2 3-6-1-14-5-7-1h-16l-25 2-18 4-24 8-20 9-18 10-7 1-10 4-1 1h-5l-2-4 5-4-1-3-10-1-2-3 2-3-4-2-6-1-10-2-2-1v-2l-6-2-5-3-1-7 3-1 5-1 21-1h130z" fill="#289CDB"/>
<path transform="translate(512,885)" d="m0 0h2l2 5 4 16 5 15 5 17 12 36 2 5-1 5h-60l1-6 11-33 4-13 9-29z" fill="#F9FDFD"/>
<path transform="translate(529,599)" d="m0 0 1 2-8 16-3 11v10l4 1 6 1 1 3 2 1v2l4 2 1 6h2l5 15-1 3-1 7h-2l-1 7-9 12-14 14-6 7-4 4-4 7h-4v2h-5l5-5h2v-2h2l2-4 6-8 3-5v-8h-2l-1-7-1-4-2-5-8-2-5 5-6 11-4 4-1-3 1-1 2-10 4-6 1-6h2l3-12 11-25 8-15 7-14z" fill="#1072B5"/>
<path transform="translate(407,605)" d="m0 0 5 1-2 10-23 45-11 22-10 19-11 21-8 14 3 1h-18l1-8 2-8 2 2 6-15 9-21 11-20 6-12 7-9 6-8 8-15 9-13 5-5z" fill="#B9E8FE"/>
<path transform="translate(1305,504)" d="m0 0 1 3-7 13-13 16-11 14-12 13-10 13-12 13-14 15-5 6-4 4 2-7h-3l1-7 7-18 2 2 1-2h2l1-4 4-4 7-12 8-10 11-6 12-5 8-7 7-8 8-10 7-11z" fill="#B8E8FE"/>
<path transform="translate(1161,666)" d="m0 0 2 1-4 6 1 5 4 5 5 4v2l4 2 9 9-1 4-6-1-8-1-5 2h-3v-2l3-2 5-1-1-1-7 1-2 1h-10l-12 2-8-1-19 3-6 3h-9l4-3 14-7 22-13 17-10z" fill="#1071B4"/>
<path transform="translate(1071,1044)" d="m0 0h8l7 5 6 10 1 7-6 8-8 6-2 1h-7l-7-3-5-6-2-3v-13l7-8z" fill="#030507"/>
<path transform="translate(759,207)" d="m0 0h33v1l-21 1-7 1 1 7 10 5v2l12 2 9 2 2 3-2 3 1 1 10 1 2 4-5 5 1 2h5l9-4 4-2 3 1-18 10-6 4-5-2-13-13-14-11-14-9-15-8-9-3v-1l6-1z" fill="#9DD8FB"/>
<path transform="translate(1467,682)" d="m0 0h5l4 5 11 21 2 5h2l2-6 5-10 4-14 1-1h5l1 1v39h-5l-1-24-4 6-4 7-1 1-1 8-1 1h-5l-4-7-6-15-4-5-1 4-2 26h-4v-21z" fill="#071520"/>
<path transform="translate(1428,620)" d="m0 0v3l-8 10-5 1v2l-5 4-7 8-8 7-9 6-7 7h-3v3h-2l-1 3-8 5-6 2v2l-9 5h-3v2l-10 4-14 9-2-1 12-9 8-7 10-6 8-4 7-7 17-12 15-9 6-4 1-2h2l2-4 10-9h2v-2h2v-2h2l2-4z" fill="#1072B5"/>
<path transform="translate(959,210)" d="m0 0 14 5 5 1v2l6 2-4 1h-10l-14-4-9 2-8 2-4 3-2 2h-3l-13-2-2-4 12-3 7-2 3-2 2-2 6 2 8-2z" fill="#1072B5"/>
<path transform="translate(1496,195)" d="m0 0h89l19 1-4 9-10-4-15-2-17-1h-78l1-2z" fill="#1A7ABD"/>
<path transform="translate(1503,682)" d="m0 0h5l1 1v39h-5l-1-24-4 6-4 7-2-1 1-5 4-8 4-14z" fill="#05111B"/>
<path transform="translate(1430,680)" d="m0 0 24 1-4 5-1 5-1 31h-5v-37l-7 1-5-3z" fill="#030405"/>
<path transform="translate(799,269)" d="m0 0 5 5 8 12v5l-7 7-2-3-3-11-4-11v-2h3z" fill="#1265AA"/>
<path transform="translate(995,224)" d="m0 0 9 3 10 9 8 7 7 10 3 4v2l4 2 5 10h-3l-16-21-11-12-14-11-2-1z" fill="#B5E6FE"/>
<path transform="translate(850,262)" d="m0 0 2 1-1 5-3 1v4l-5 2-1 2-4-7-4 2-4 3 1-9 3-3 3 4 5-2z" fill="#1072B5"/>
<path transform="translate(701,208)" d="m0 0h26l5 1v2l3 1-6 1-1 2-9 1-10-5-1-1-7-1z" fill="#1275B8"/>
<path transform="translate(919,663)" d="m0 0 4 4 10 13 10 11 13 10 11 7 14 7-4 1-17-9-13-10-10-9-12-14-6-8z" fill="#1674B7"/>
<path transform="translate(1503,695)" d="m0 0h2v6h3v-5h1v26h-5z" fill="#1565A2"/>
<path transform="translate(1430,680)" d="m0 0 21 1-4 3h-1l-1 31-1 6h3l1-3v4h-5v-37l-7 1-5-3z" fill="#166AAC"/>
<path transform="translate(1467,687)" d="m0 0 2 3v10l1 1v23h-4v-21z" fill="#0C3351"/>
<path transform="translate(1331,683)" d="m0 0 2 2-7 6-3 5-8 5-4 3-6 2 5-5 12-11z" fill="#1072B5"/>
<path transform="translate(1198,610)" d="m0 0 2 1 5 17 1 9-4 2v-6l-2-4z" fill="#1470B3"/>
<path transform="translate(1558,197)" d="m0 0h32l4 1 4 5h-3l-5-2-15-2-17-1z" fill="#1072B5"/>
<path transform="translate(1307,510)" d="m0 0 3 1-2 12-3 1-1 2-1-8z" fill="#1072B5"/>
<path transform="translate(919,663)" d="m0 0 4 4 10 13 10 11 3 3h-3l-8-8-9-11-7-9z" fill="#1877BA"/>
<path transform="translate(810,285)" d="m0 0 2 1v5l-7 7-2-3-1-6 5 3v-3h2z" fill="#1072B5"/>
<path transform="translate(766,226)" d="m0 0 6 2 14 11 1 3-5-2-9-8-7-5z" fill="#B5E6FE"/>
<path transform="translate(506,720)" d="m0 0v3l-4 7h-4v2h-5l5-5h2v-2z" fill="#1277B9"/>
<path transform="translate(1452,200)" d="m0 0h10l-3 2-12 2h-5v-2z" fill="#1880C1"/>
<path transform="translate(412,617)" d="m0 0 1 4-1 10-1 6h-1v-15z" fill="#1072B5"/>
<path transform="translate(548,321)" d="m0 0 2 1-8 10-2-3 1-3 5-3z" fill="#98D6F9"/>
<path transform="translate(1428,620)" d="m0 0v3l-8 10-1-4h2v-2h2v-2h2l2-4z" fill="#1770B4"/>
<path transform="translate(1139,678)" d="m0 0m-1 1v3l-10 6-2-1 5-4z" fill="#289CDB"/>
</svg>
