<?xml version="1.0" encoding="UTF-8"?>
<svg version="1.1" viewBox="0 0 992 812" width="248" height="203" xmlns="http://www.w3.org/2000/svg">
<path transform="translate(706,2)" d="m0 0 16 1 26 4 5 2 5 5 2 3v13l-3 21 3 3 11 6 14 10h3l12-10 12-7h9l7 4 6 7 9 12 9 13 2 9-3 8-10 9-16 11 3 7 4 19 1 7 7 2 21 3 6 4 4 5 1 2v12l-4 29-5 10-4 3-3 1h-12l-21-3-2-1-2 6-9 15-6 9 4 7 10 13 3 6v9l-4 7-11 9-18 13-9 4-7-1-8-6-10-13-5-7h-7l-17 4-11 2-1 1-3 25-4 8-5 4-3 1-16-1-27-4-6-3-6-8v-10l3-19v-6l-15-8-11-8-5-2v2l-18 13-9 4-6-1-6-4-8-9-9-12-7-10-2-4v-8l4-8 14-11 9-6-1-6-4-17-2-12-26-4-6-3-6-6-1-8 2-16 3-23 7-8 4-2h10l20 2 5 1 6-12 10-14 1-5-14-19-3-7v-6l3-6 7-7 16-12 11-7 2-1h10l6 4 9 10 9 12 8-1 12-3 15-2 3-23 3-9 7-6zm-15 102-14 4-12 6-11 9-9 10-8 16-3 10-1 7v13l4 16 8 16 11 12 10 8 16 7 10 2h18l14-3 16-8 10-9 9-10 8-16 3-13v-16l-3-14-4-10-7-11-14-14-15-8-15-4z" fill="#020202"/>
<path transform="translate(443,35)" d="m0 0h50l33 4 1 5-1 3-1 14-5 3-11 7-10 9-6 7-4 6-3 1h-36l-24 3-23 5-20 6-26 11-18 10-12 8-12 9-10 9-8 7-8 8-11 14-6 8-11 17-9 17-11 27-7 25-6 30-5 3-28 5-23 6-18 6-22 10-19 12-14 12-10 11-9 13-10 19-6 18-3 14-1 8v30l3 19 6 21 8 18 6 11 9 13 11 13 10 10 14 10 14 8 20 8 9 3 1 3v56l-2 1-27-7-19-7-16-8-11-6-14-10-13-11-16-16-10-13-11-16-9-16-9-21-6-18-4-17-4-26v-37l5-26 6-21 5-13 8-16 9-15 11-15 12-13 8-8 14-11 18-12 23-12 20-8 21-7 17-5 10-31 10-24 8-16 13-22 13-18 13-15 9-10 10-10 8-7 15-12 21-14 16-9 16-8 19-8 30-10 24-5 20-3z" fill="#020202"/>
<path transform="translate(311,591)" d="m0 0h72l3 4 13 35 23 61 30 80 13 34v4h-69l-4-9-7-25-5-1-72 1-11 33-1 1h-68l3-9 15-40 17-45 14-37 18-48 14-37zm34 58-21 69-2 9h49l-13-43-10-33-1-2z" fill="#030303"/>
<path transform="translate(483,591)" d="m0 0h120l15 2 12 3 14 7 11 10 8 13 4 13 2 16-1 17-3 13-8 16-9 10-11 8-12 5-18 4h-57v81l-2 1-65-1zm67 45v49h27l13-3 8-6 4-6 1-3v-13l-4-9-7-6-9-3z" fill="#030303"/>
<path transform="translate(915,250)" d="m0 0 4 1 7 8 10 10 12 16 12 19 12 25 7 20 6 23 4 22 3 23v35l-5 35-8 32-10 25-11 20-12 17-12 13-15 15-17 13-14 9-18 10-21 10-21 8-9 3h-4v-61l8-4 16-7 15-8 18-12 13-11 13-13 12-18 7-14 7-20 4-17 3-19 1-28-2-27-5-26-5-16-6-16-9-17-10-14-11-13-6-7v-10l4-4 8-4 9-7 6-5z" fill="#030303"/>
<path transform="translate(697,591)" d="m0 0h66l1 1v217l-37 1h-29l-2-4v-214z"/>
<path transform="translate(240,410)" d="m0 0h77l14 1 11 4 8 6 6 9 3 8v17l-4 11-9 10-7 4-10 2v3l6 2 8 7 8 11 15 29 3 6v2l-43 1-4-4-16-29-8-14-5-5-6-2h-6v53h-41l-1-34v-23zm41 26-1 3v24l1 1h19l11-2 6-5 2-4v-6l-5-8-3-2-8-1z" fill="#050505"/>
<path transform="translate(379,410)" d="m0 0h108l1 1v26l-68 1-1 21h63l2 1v24l-2 2h-63l1 26h69l1 1v28l-1 1h-110l-1-131z" fill="#070707"/>
<path transform="translate(546,408)" d="m0 0h30l16 4 12 7 6 8 5 10 1 10-10 1-26 1-3-2-4-9-5-4-4-1h-12l-6 3-2 3 1 7 5 4 13 4 21 5 15 6 9 6 8 9 4 9 1 6v9l-2 9-7 13-8 8-12 6-11 3-7 1h-30l-16-4-9-5-5-4-7-10-4-9-3-13 7-1 31-2 2 3 3 9 4 5 7 4 4 1h10l8-4 4-5v-7l-3-6-8-4-32-9-16-8-8-7-5-8-2-6-1-8 2-11 5-10 7-7 10-6 10-3z" fill="#040404"/>
<path transform="translate(628,410)" d="m0 0h123l1 1v30l-1 1h-41v100l-34 1-6-1-1-2v-98h-41l-1-4v-27z" fill="#070707"/>
<path transform="translate(697,591)" d="m0 0h66v1l-64 1 1 41v153l-1 21h51v1l-23 1h-29l-2-4v-214z" fill="#3B3B3B"/>
<path transform="translate(628,440)" d="m0 0h42l2 3v87l-1 10h36l2 1v-99h1v100l-34 1-6-1-1-2v-98h-41z" fill="#8F8F8F"/>
<path transform="translate(418,486)" d="m0 0h1l1 26h69l1 1v28l-2-2v-24h-68l-3-4v-16z" fill="#3C3C3C"/>
<path transform="translate(483,460)" d="m0 0h1v24l-2 2h-63v-2h62l1-21z" fill="#777"/>
<path transform="translate(165,608)" d="m0 0 5 1 1 3v56l-2 1-1-4-1-55z" fill="#2F2F2F"/>
<path transform="translate(670,540)" d="m0 0h37l1 2-32 1-6-1z" fill="#2C2C2C"/>
<path transform="translate(535,496)" d="m0 0 3 1-3 3-28-1v-1z" fill="#7A7A7A"/>
<path transform="translate(327,540)" d="m0 0 42 1v1l-43 1-2-2z" fill="#343434"/>
<path transform="translate(564,228)" d="m0 0 2 1-13 13-2-1 4-6z" fill="#656565"/>
<path transform="translate(835,161)" d="m0 0 11 1 10 1v1h-21z" fill="#585858"/>
<path transform="translate(800,60)" d="m0 0 2 1-11 11-3-1 5-5z" fill="#515151"/>
<path transform="translate(990,412)" d="m0 0h1l1 5v14l-2-3-1-12z" fill="#505050"/>
</svg>
