<?xml version="1.0" encoding="UTF-8"?>
<svg version="1.1" viewBox="0 0 2048 1071" width="1200" height="628" xmlns="http://www.w3.org/2000/svg">
<path transform="translate(0)" d="m0 0h2048v1071h-2048z" fill="#FDFDFC"/>
<path transform="translate(834,228)" d="m0 0 4 5 11 20 14 24 14 25 14 24 15 26 2 5-12 22-14 24-16 28-13 23-14 24-15 26-14 24-14 25-10 17-21 36h287l9 14 11 20 13 22 15 26 13 23 13 22v1h-582l2-6 16-28 14-24 16-28 10-17 16-28 14-24 9-16 11-19 28-49 13-22 13-23 11-19 30-52 12-21 15-26 14-24 10-18 28-48z" fill="#FEAF3B"/>
<path transform="translate(1e3)" d="m0 0h142l9 15 15 26 12 21 14 24 16 28 15 26 32 56 16 27 16 28 10 18 16 27 15 27 10 17 14 24 16 28 30 52 13 23 10 17 30 52 28 49 17 29 32 56 17 29 13 23 6 10v2h-142l-14-24-13-23-14-24-16-28-13-23-17-29-14-25-16-27-13-23-11-19-15-26-16-28-14-24-16-28-30-52-16-28-13-22-11-20-14-24-13-22-10-18-15-26-14-24-15-26-16-28-14-24-14-25-10-17-12-21-3-4z" fill="#FEB502"/>
<path transform="translate(943,38)" d="m0 0h2l15 27 9 15 32 56 15 26 14 24 16 28 45 78 28 49 15 26 10 17 32 56 14 24 16 28 14 24 13 23 14 24 16 28 14 24 15 26 16 28 14 24 16 28 6 11v3h-91l-51-1-8-15-8-13-15-27-10-17-12-21-30-52-14-24-14-25-9-15-9-16-13-23-13-22-15-26-28-49-14-24-16-28-30-52-14-24-13-23-10-17-15-27-11-18-7-13 1-6 10-18 8-14 17-29 13-23 15-26z" fill="#FEB502"/>
<path transform="translate(834,228)" d="m0 0 4 5 11 20 14 24 14 25 14 24 15 26 2 5-12 22-14 24-16 28-13 23-14 24-15 26-14 24-14 25-10 17-14 24-6 10-7 6-16 9-24 14-26 15-22 12-24 14-22 13-24 14-22 13-17 10-7-3-3-4 10-17 14-24 16-28 10-17 16-28 14-24 9-16 11-19 28-49 13-22 13-23 11-19 30-52 12-21 15-26 14-24 10-18 28-48z" fill="#FE9500"/>
<path transform="translate(572,861)" d="m0 0h22l10 38 8 31 9 35 3 12 2 2 7-33 7-30 7-28 5-21 1-2h23l7 28 6 26 5 21 7 28 2 10 1 1 10-38 11-43 9-35 1-1 22-1-2 10-9 30-19 65-11 38-6 2h-9l-9-1-3-9-6-24-18-75v-3h-2l-1 9-14 57-11 45h-24l-3-9-9-30-10-34-11-38-8-28z" fill="#3B3A3A"/>
<path transform="translate(1317,897)" d="m0 0h12l10 2 8 4 8 7 8 14 3 14v26l-4 17-7 11-4 5-11 7-9 3h-19l-11-4-11-7v52h-20v-148h17l1 10 16-10 6-2z" fill="#3A3A3A"/>
<path transform="translate(990,861)" d="m0 0h23l13 35 14 38 16 43 10 27v2h-22l-9-25-4-12v-2h-60l-3 10-9 27-2 2h-17l-3-1 1-5 18-49 10-27 17-46 6-16z" fill="#3C3A3A"/>
<path transform="translate(500,861)" d="m0 0h23l34 92 13 35 6 17-2 1h-19l-3-5-11-31v-3l-60 1-12 36-2 2h-18l-2-1 1-5 16-44 16-43 15-41 4-10z" fill="#3B3A3A"/>
<path transform="translate(1137,897)" d="m0 0h12l8 2 5 3 6 7v2l11-6 13-6 11-2h14l10 3 8 7 4 10 1 7v82h-20l-1-76-2-9-5-5-3-1h-15l-14 4-5 3h-2v27l-1 57h-19l-1-69-1-11-4-8-5-3h-17l-15 5-5 2v84l-20-1v-105h17l2 9 19-9 6-2z" fill="#3A3A3A"/>
<path transform="translate(834,228)" d="m0 0 4 5 2 6-1 4v2h2l5 11 2 7 4 4 2-1 6 10 2 7 1 2-2 1 1 7 1 4 4-1 4 1 1 6-1 6 2 9-3 7v7h7l1-1h6l2 7v11l-2 6-1 8-2 1-1-1v5l-3 5v4l-1 4-4 1-4-2-7 2-7-5v-2l-4-2-13-7v-2h-3l-5-11v-2h-2l-5-9-5-3-3-5-5 1-9 4-7 3-5-1 2-6 3 1 2-6 3-5 9-13 4-8-1-3 4-6 7-11-2-1-2 5-8 11-3 6-9 14-8 16-6 11h-2l1-4 3-8 3-4 3-11 5-8 8-11 9-14 4-6 1-6-1-6h-2l-2 5-5 7-4 8-4 6h-2v2h-2l-1 4-2 1 2-6 13-22 15-26 9-16z" fill="#FEB501"/>
<path transform="translate(820,858)" d="m0 0 16 1 23 5 2 1v17l-13-2-16-3h-11l-11 2-10 5-4 8v9l4 8 6 5 21 9 16 6 13 7 8 8 4 9 1 6v12l-3 12-6 9-7 7-14 7-9 2h-28l-16-3-10-4-1-1v-16l18 4 15 2h14l10-2 6-3 5-4 4-8v-10l-4-8-6-5-13-6-25-10-9-5-10-9-5-10-1-6v-10l2-10 6-10 9-8 8-4 12-3z" fill="#3B3A3A"/>
<path transform="translate(1575,900)" d="m0 0h22l3 7 7 20 13 37 6 17v4h2l2-9 18-52 8-24h21l-3 11-20 51-15 39-12 30-6 9-7 6-5 3-8 2h-8l-10-2-1-1-1-13 2-2h17l6-4 5-8 5-12-1-8-6-14-13-33-14-35-7-17z" fill="#3B3A3A"/>
<path transform="translate(1537,849)" d="m0 0h19l11 3v14h-22l-6 3h-2l-2 6-1 25h32v16h-32v88l-1 2-20-1v-89h-19v-14l19-2 1-27 4-12 7-7 9-4z" fill="#3C3B3A"/>
<path transform="translate(1309,914)" d="m0 0h17l9 4 6 7 4 9 1 6v23l-3 12-6 9-5 4-10 3h-10l-13-4-9-6v-59l11-6z" fill="#FDFDFB"/>
<path transform="translate(1392,852)" d="m0 0h20l1 127 2 8 1 1 14 1v15l-6 2h-17l-7-4-6-8-1-3-1-85z" fill="#3A3A3A"/>
<path transform="translate(1099,538)" d="m0 0 4 4 2 5h2l8 16 4 6 7 16 7 9 6 12v3h-3l3 7 2 1 1-3 5 1 6 7 3 9-1 6v3l2 5 7 1 7 8 4 11 2 6 8 10 7 10 3 7 4 8v3h-2l5 9 5 1 12 5 12 3-2 4-3 3h-24l-8-15-8-13-15-27-10-17-12-21-30-52-14-24-10-18 1-4 1 1z" fill="#FE9702"/>
<path transform="translate(1453,900)" d="m0 0h20v105l-20 1z" fill="#3A3A3A"/>
<path transform="translate(1e3 881)" d="m0 0h2l12 36 11 32v2h-48l1-6 14-41z" fill="#FDFCF8"/>
<path transform="translate(510,882)" d="m0 0h2l5 15 12 34 6 18v2h-48l2-9 18-53z" fill="#FDFCF9"/>
<path transform="translate(1156,615)" d="m0 0 7 1 2 5 1 11 2 6h2l11 19 2 4 5 5 4 6 6 8 11 10 3 16 3 6 9 2 7 3 9 1v2h27l-1 2-6 2h-23l-15-2-10-4-4-5-6-15-4-7-10-11-8-12-4-12-8-11-6-7-3-17z" fill="#FF9500"/>
<path transform="translate(1462,856)" d="m0 0 7 1 5 4 2 9-3 8-6 3h-9l-6-5-2-4 1-9 4-5z" fill="#3C3B3A"/>
<path transform="translate(1012,354)" d="m0 0 4 2v10l4 15 4 6 3 1 2 9 3-1 4 4 8 4 2 4v6l-1 2v6l2-6h2l1 7 6-2-2 6h2l1 7v6h-2v2l-3-1-3-8-7-9-3-13-5-5-7-8-7-12-4-6-4-13-3-11z" fill="#FEAF3B"/>
<path transform="translate(834,228)" d="m0 0 4 5 2 6-5 11h-5l-3 1-2 6-6 9-4 2-2 5-5 7-4 8-4 6h-2v2h-2l-1 4-2 1 2-6 13-22 15-26 9-16z" fill="#FEAF35"/>
<path transform="translate(892,352)" d="m0 0 9 1 1 7-5 10-9 11-5 5h-2v-2h-2l-2 4h-2v10l-2 1v-14l6-5 6-10 1-6 1-8 2-3z" fill="#FEB602"/>
<path transform="translate(1333,718)" d="m0 0 5 3 6 11v3l-39-1-1-3 3-2 18-5 5-2v-2h3z" fill="#FEAF39"/>
<path transform="translate(1289,660)" d="m0 0 2 1 3 13 10 2 8 20 3 5v6l-4 9h-3l-1-3 4-9-1-6-8-15h-6l-4-2-5-7v-2l2-1z" fill="#FFAF3C"/>
<path transform="translate(1076,502)" d="m0 0 6 5 7 15v3h-3l3 7 4 6 1 5-4-4-13-22-5-10v-2h3z" fill="#FE9803"/>
<path transform="translate(1043,454)" d="m0 0 4 5 4 6 2-1v2h2l7 13 7 11 2 3-3 2h-3l-12-21-10-17z" fill="#FE9A03"/>
<path transform="translate(839,239)" d="m0 0h2l15 26 6 10v2l-4-2-4-7-4-1-4-5-2-9-3-6v-2h-2l-1-5z" fill="#FE9C05"/>
<path transform="translate(982,350)" d="m0 0 5 2 3 3 7 16 5 7 3 3 3 7v5h-2l-14-25-10-17z" fill="#FE9E07"/>
<path transform="translate(1022,416)" d="m0 0 4 5 10 13 4 6 2 5v7h-2l-15-26-3-5z" fill="#FE9B03"/>
<path transform="translate(1130,576)" d="m0 0 7 6 3 6v2h2l3 6 6 5 1 4h2l1 8-4-5-7-8-5-7-5-3-3-7z" fill="#FF9500"/>
<path transform="translate(875,309)" d="m0 0 3 1 7 12-1 5-6-2-3-3-1-4v-8z" fill="#FEB602"/>
<path transform="translate(1270,615)" d="m0 0 2 1v2l3 1 5 10-1 7v11l2 4 3 3-2 1-5-2h-1v-20l1-5-2-2-4-5-2-4z" fill="#FFAF3C"/>
<path transform="translate(935,262)" d="m0 0 6 4 4 5 1 3v7l-5-2-6-9-1-7z" fill="#FEAE35"/>
<path transform="translate(882,176)" d="m0 0 4 1 4 4 3 5 4 4v5h-3l-6-7-6-10z" fill="#FEAF37"/>
<path transform="translate(1314,682)" d="m0 0 4 4 11 19-4 2v-3h-2l-2-4-1-1-7-12 2-1z" fill="#FEA004"/>
<path transform="translate(1295,650)" d="m0 0h2l10 17-4 1-8-15z" fill="#FE9F07"/>
<path transform="translate(1e3 378)" d="m0 0 4 1 4 9v5h-2l-6-11z" fill="#FE9A05"/>
<path transform="translate(1270,615)" d="m0 0 2 1v2l3 1 5 10-3-1-2-2-4-5-2-4z" fill="#FEAF3A"/>
<path transform="translate(972,330)" d="m0 0 2 1v2h2l5 9 1 2-1 2h-2l-7-13z" fill="#FE9D05"/>
<path transform="translate(982,343)" d="m0 0 4 4 3 6-5-2-4-3z" fill="#FEAE37"/>
<path transform="translate(1327,708)" d="m0 0 5 2 5 10-5-2-4-7z" fill="#FE9E03"/>
<path transform="translate(1101,552)" d="m0 0 5 2 2 4-1 5-4-5-2-3z" fill="#FFAF3C"/>
<path transform="translate(1284,632)" d="m0 0 4 2 5 10-4-2-5-8z" fill="#FEA004"/>
<path transform="translate(1260,594)" d="m0 0 3 3 3 5 1 5-3-1-4-9z" fill="#FFAF3C"/>
</svg>
