<?xml version="1.0" encoding="UTF-8"?>
<svg version="1.1" viewBox="0 0 2048 2048" width="128" height="128" xmlns="http://www.w3.org/2000/svg">
<path transform="translate(510,919)" d="m0 0h79l6 5 6 16 19 64 16 50 6 21 8 25 6 19 24 73 10 36-1 5-4 3-11 1h-19l-25-1-6-5-16-45-4-12-2-3-5-1-20 1h-45l-4-3-1-9 4-18 5-17 4-6 3-2 7-1h29l8 1-5-16-8-31-9-31-8-26-4-8-3-3-4 2-4 8-8 24-7 24-17 57-9 31-10 34-11 35-4 13-5 6h-58l-6-4 1-7 12-36 10-31 10-34 7-21 11-36 9-29 16-50 14-46 5-15 3-5z" fill="#0B4878"/>
<path transform="translate(70,913)" d="m0 0 10 1 24 6 14 4 19 5 5 3 7 10 10 18 10 14 10 13 11 14 14 15 21 21 6 4h6l28-28 1-2h2l2-4 13-15 9-10 12-17 12-19 6-10 5-5 11-4 26-8 21-4h11l1 1v7l-4 15-8 24-11 24-10 16-13 18-11 14-8 10-11 12-7 8-10 10-6 7-15 11-1 2 5 10 8 11 12 19 12 22 8 17 6 16 7 33v9l-6 3-7 1-33 1h-17l-6-9-5-12-8-21-10-21-10-15-8-10-11-13-9-11-10-11-7-8-27-27v-2l-4-2-7-8-11-11-7-8-12-14-12-15-14-21-11-20-8-18-10-33-1-11z" fill="#41A4E0"/>
<path transform="translate(1980,998)" d="m0 0h25l13 4 10 6 10 14 6 10 4 15v187l-1 1-9 1h-49l-5-5-1-7v-80l-1-78-1-9-54 12-14 3v160l-7 3-36 1-17-1-4-5-2-6v-90l1-129 2-3h14l28 2 9 3 7 10 5-1 18-8 18-5 21-4z" fill="#0B4778"/>
<path transform="translate(1693,999)" d="m0 0h63l17 4 11 6 10 9 5 5 7 10 5 10 3 14 1 26v143l-2 7-4 3-6 1h-31l-8-3-11-8-10 3-14 7-8 2-12 1h-35l-12-3-8-6-10-10-8-13-4-12-2-12v-25l3-18 8-16 7-8 8-5 15-4 31-3 37-2 10-1 1-2v-16l-3-21-3-7-2-1-13-1h-29l-30 1h-27l-3-3-1-39 2-7 4-2 29-3zm8 150-10 3v17l3 12 4 6 3 2 5 1h14l15-3 10-4 6-7 2-7v-11l-3-5-4-2-13-2z" fill="#0B4878"/>
<path transform="translate(1010,999)" d="m0 0h61l17 4 12 6 12 11 7 9 7 14 3 15 1 16 1 64v92l-4 6-2 1h-18l-21-2-14-5-7-1-17 5-13 4-18 2h-23l-11-2-12-6-11-11-7-11-6-16-1-6-1-26 2-16 3-10 8-14 4-5 11-6 12-4 16-2 30-2 25-1 9-1 1-2v-14l-3-22-3-7-4-2-6-1h-47l-30 2h-14l-3-10-2-20v-18l2-2 19-3zm5 150-9 4-1 6 3 19 4 8 4 3 5 1h13l13-2 11-4 6-4 3-5 2-7v-9l-3-6-9-3-10-1z" fill="#0B4878"/>
<path transform="translate(1221,998)" d="m0 0h41l25 1 18 2 8 3 2 4 1 6v13l-1 23-4 5h-12l-44-3h-23l-9 2-3 2-1 6v8l5 10 14 6 49 17 13 6 10 6 4 5 5 10 3 13 1 7v26l-3 17-4 12-6 12-6 8-10 6-11 4-22 4-20 1-34-1-26-3-18-4-5-4-1-4 1-20 2-20 2-4h8l29 4 22 2h25l11-4 4-6 1-4v-7l-5-9-8-5-11-5-40-12-20-9-10-8-7-15-3-14-1-11v-17l2-16 7-16 7-9 8-7 10-6 16-6z" fill="#0B4878"/>
<path transform="translate(1415,998)" d="m0 0 51 1 25 2 9 3 2 3v45l-9 2-47-2h-34l-5 2-1 1v10l3 12 5 6 15 6 15 4 27 9 17 9 10 9 6 10 4 12 2 21-1 16-4 19-5 11-6 9-10 10-8 4-16 5-22 3h-31l-26-2-26-5-10-5-2-3v-22l3-17 4-6 12 1 30 4 11 1h31l6-3 3-4 2-7v-9l-5-8-8-6-18-6-26-7-19-8-14-10-4-6-4-9-2-13v-34l2-13 5-15 7-10 7-7 11-6 12-5 4-1z" fill="#0B4878"/>
<path transform="translate(766,939)" d="m0 0 4 2 1 3v58l45 1 10 2 1 5-1 38-5 4-13 1-36 1v120l1 8 3 2 5 1 25 1 11 1 5 3 4 8 1 16 1 12-3 5-8 4-19 3-26 2h-17l-12-2-12-6-7-7-7-10-5-8-3-11-1-8-1-101-1-30-10-2-17-2-3-2-2-6-1-32 2-7 7-2 25-2v-40l1-13 3-3 16-2z" fill="#0B4878"/>
<path transform="translate(859,914)" d="m0 0h54l6 2v314l-3 5-2 1h-43l-12-1-4-5-1-14v-300z" fill="#0C4979"/>
<path transform="translate(0,806)" d="m0 0 10 3 16 6 20 9 28 11 21 7 28 8 34 7 41 5 19 1h40l28-2 28-4 29-6 33-9 43-15 20-9 20-8 3-1h9l3 4v6l-4 6h-2v2l-18 12-22 14-21 11-25 11-22 8-23 7-25 5-29 4-23 2-38 1-25-1-34-4-25-6-21-6-22-8-30-13-20-10-18-11-17-11-9-6z" fill="#42A5E1"/>
<path transform="translate(1543 1e3)" d="m0 0h40l17 1 2 2v224l-3 5-5 2h-27l-20-1-6-2-4-5 1-192 1-31 1-2z" fill="#0C4879"/>
<path transform="translate(165,1120)" d="m0 0 5 2 8 7 7 7 7 8 8 8 10 13 3 5v7l-6 17-7 19-6 16-5 6-3 1h-23l-27-1-7-3-2-2v-11l6-26 7-21 9-21 8-16z" fill="#42A5E1"/>
<path transform="translate(1539,913)" d="m0 0h32l21 1 6 2 1 2v51l-1 1-35 1h-20l-5-2-1-3-1-20v-21l1-10z" fill="#0C4979"/>
<path transform="translate(192,940)" d="m0 0h74l3 3v10l-8 16-9 14-9 10-10 6-4-1-7-6-12-17-12-20-6-12z" fill="#42A5E1"/>
<path transform="translate(2045,1039)" d="m0 0 2 4 1 10v173h-1l-1-6-2-46v-112z" fill="#42A5E1"/>
</svg>
