<?xml version="1.0" encoding="UTF-8"?>
<svg version="1.1" viewBox="0 0 904 892" width="226" height="223" xmlns="http://www.w3.org/2000/svg">
<path transform="translate(0)" d="m0 0h904v892h-904z" fill="#FDFDFD"/>
<path transform="translate(544,181)" d="m0 0h50l14 1 8 7 1 4v402l-2 5-8 7-2 1h-292l-8-4-5-4-1-3-1-48v-143l1-3 7-5 6-2 8-1h68l-1-38v-58l5-6 8-4 54-1h22l-1-90 1-7 9-8 3-1z" fill="#FFDA63"/>
<path transform="translate(544,181)" d="m0 0h50l14 1 8 7 1 4v402l-2 5-8 7-2 1h-134l-31-1 1-9-1-8 1-39 2-7 3 1 1 4h2l1-3 15-6 3 3 3 1 2-7 4-2 4-1 4-4h4l4-5h9l5 2 1 2 4-9h2l4 7 2 3h3l3-8 1-9 1-124v-49l-1-40-2-5-4-4-9-2-32-1-4-1-1-89 1-7 9-8 3-1z" fill="#EE9903"/>
<path transform="translate(476,287)" d="m0 0 36 1 9 2 6 6 1 4 1 40v49l-1 126-1 7-4 9-4-1-5-7v-3h-2l-1 5-3 5-3-3-3-1h-9l-4 5-7 1-2 4h-5l-4 8-4-1-3-2-8 4-6 2-3 3h-1l-1-5-2-1-1 7-1 44 1 5-2 7h-1v-191l-1-11-2-6-5-2-8-2-32-1-2-1-1-9-1-27v-58l5-6 8-4 54-1z" fill="#FFC621"/>
<path transform="translate(586,628)" d="m0 0h34l7 3 6 7 3 8-1 9-6 8v4l8 7 3 6 1 9-2 9-8 9-7 3-7 1h-30l-1-1z" fill="#060406"/>
<path transform="translate(301,648)" d="m0 0 11 1 9 4 7 8 4 11v16l-4 11-6 7-9 5-4 1h-14l-10-4-7-8-3-8-1-13 2-12 4-8 8-7 7-3z" fill="#060406"/>
<path transform="translate(231,627)" d="m0 0 15 1 8 3 8 9 2 5v15l-4 8-5 5-7 4-16 3h-8v31l-1 1h-9l-1-1v-82l1-1z" fill="#060406"/>
<path transform="translate(383,649)" d="m0 0 7 2 3 9 10 35 1 4h2l4-18 8-27 2-4h8v7l-12 38-5 15-2 2h-9l-3-3-7-24-5-16-2 3-4 17-6 21-2 2h-10l-3-5-8-25-8-28v-4h9l4 10 10 36 1 2 3-7 9-33 3-8z" fill="#060406"/>
<path transform="translate(458,649)" d="m0 0h15l7 3 5 5 4 6 2 8v10l-2 1h-41l2 10 4 7 3 3 4 1h15l12-3 1 5-4 4-10 3h-17l-9-4-7-8-3-7-1-5v-13l3-12 6-8 8-5z" fill="#060406"/>
<path transform="translate(297,657)" d="m0 0h13l6 4 5 10 1 5v9l-3 10-7 8-3 1h-12l-7-4-4-6-2-6v-13l4-11 7-6z" fill="#FDFCF9"/>
<path transform="translate(597,672)" d="m0 0h18l9 3 4 5 2 4v7l-4 8-5 3-5 1h-19l-1-1v-29z" fill="#FDF9F3"/>
<path transform="translate(661,627)" d="m0 0h6l2 2v81l-2 2h-8l-1-1v-77l1-6z" fill="#060406"/>
<path transform="translate(224,636)" d="m0 0h18l6 3 4 5 1 4v11l-6 9-9 3h-14z" fill="#FDFCF9"/>
<path transform="translate(532,648)" d="m0 0 6 1 4 4v5l-1 1-9-1-6 4h-2l-2 4-3 5-1 40-2 1h-7l-1-1v-59l3-3 5 1 1 9h2v-2l8-7z" fill="#060406"/>
<path transform="translate(476,287)" d="m0 0h4v2h8l-1 4-5 2-4 3-4-1-2-2-20-1-13-1v-1l22-1h-57l1 3 5 1-3 2-9 2v19l3 15 1 2h8l-2 1v2l-7 1-2 5-2-2-2-5-3-17-2-9-1-1-1 47h-1v-58l5-6 8-4 54-1z" fill="#FFDA62"/>
<path transform="translate(596,636)" d="m0 0h20l5 3 3 5v11l-3 5-4 3-6 1h-14l-1-1z" fill="#FDFCF9"/>
<path transform="translate(460,656)" d="m0 0h11l6 4 4 7 1 7-1 1h-33l1-7 4-7z" fill="#FDFAF6"/>
<path transform="translate(419,603)" d="m0 0h6l5 3-4 1h-50v-1l20-1 9-1h13z" fill="#FFC621"/>
</svg>
