<?xml version="1.0" encoding="UTF-8"?>
<svg version="1.1" viewBox="0 0 2048 1345" width="277" height="182" xmlns="http://www.w3.org/2000/svg">
<path transform="translate(0)" d="m0 0h2048v1345h-2048z" fill="#FEFEFE"/>
<path transform="translate(791,33)" d="m0 0h14l22 3 23 6 20 7 25 11 23 12 19 12 15 10 18 13 11 9 14 12 13 11 10 9 5 4 7-6 7-7 10-8 17-14 14-11 16-12 20-14 24-14 22-11 27-11 23-7 22-4h27l18 4 14 5 13 7 9 7 9 8 10 14 9 17 6 15 7 25 4 28 2 18 1 15v22l-3 39-5 39-7 34-1 10 17 4 36 13 30 13 25 12 19 10 21 13 18 13 13 11 12 11 10 11 12 17 9 17 7 19 2 7v21l-3 14-8 21-9 15-10 14-9 10-7 8-10 9-18 13-24 16-21 12-28 14-25 11-36 14-18 6-3 2v8l6 28 3 21 4 34 2 40v20l-2 25-5 28-4 15-7 20-9 17-8 11-9 10-11 10-17 9-16 6-8 2h-30l-25-5-36-12-24-11-22-12-23-14-15-11-12-9-13-10-13-11-15-13-8-7-3-2-5 1-11 9-12 10-11 9-14 12-18 13-21 14-20 12-26 14-26 11-24 8-17 4-8 1h-25l-16-3-13-5-15-8-9-7-9-8-11-15-12-25-7-21-6-29-4-33-1-10v-21l5-49 5-35 6-28 1-7-4-3-40-14-31-13-30-14-24-13-19-12-15-11-9-7-13-11-9-9-9-11-7-10-9-16-7-16-4-15-1-6v-14l4-18 6-16 10-18 10-13 12-13 10-10 11-9 14-11 15-10 24-14 15-8 29-13 33-13 35-12h2l-2-17-5-24-5-32-4-39v-44l3-26 5-26 6-21 9-21 8-14 11-13 11-10 13-8 17-7 14-3z" fill="#01D8FF"/>
<path transform="translate(1020,346)" d="m0 0 53 1 43 2 9 2 8 9 14 22 17 26 12 20 15 26 9 16 8 16 9 19 8 16v6l-10 18-11 23-12 23-13 23-8 14-15 24-11 18-11 16-8 10-4 3-23 2-35 1h-75l-61-2-6-3-6-7-13-20-15-24-8-13-9-15-10-17-14-26-18-35-7-12 1-7 26-52 10-18 13-23 15-25 12-19 12-18 10-14 4-2 7-1 46-2z" fill="#FEFEFE"/>
<path transform="translate(708,390)" d="m0 0h8l5 14 19 54 16 41 9 20 1 8-9 19-16 42-14 39-11 33-6-1-24-9-26-10-25-11-26-13-17-10-19-13-14-11-15-14-12-15-6-12-3-12v-8l3-12 8-16 8-10 19-19 15-11 21-14 22-12 22-11 34-14z" fill="#FEFEFE"/>
<path transform="translate(1231,85)" d="m0 0h26l11 3 10 5 6 5 9 13 6 13 5 16 4 25 2 22v40l-3 34-9 52-3 10-1 1h-7l-29-7-44-8-49-7-11-2-7-6-9-13-12-15-10-13-12-14-9-10-11-14-11-12-12-12 1-5 13-12 10-8 16-13 17-13 16-11 19-12 14-8 25-12 27-9z" fill="#FEFEFE"/>
<path transform="translate(1333,388)" d="m0 0 17 6 30 11 30 13 26 13 22 13 23 16 11 9 17 17 6 8 8 16 2 8v11l-3 11-6 11-8 11-11 12-11 10-19 14-16 10-18 10-19 10-32 14-30 11-13 5-5 1-3-3-14-41-12-33-13-32-10-22v-8l8-17 18-47 17-48 7-19z" fill="#FEFEFE"/>
<path transform="translate(754,724)" d="m0 0 9 1 24 6 51 9 38 6 18 3 8 7 20 26 13 16 9 11 12 14 9 11 8 8 6 7 5 5 3 5-2 4-16 13-11 9-13 11-20 15-21 14-24 14-25 12-19 7-26 7h-17l-15-5-10-6-9-10-8-15-6-18-4-18-3-27v-44l4-41 6-36 4-18z" fill="#FEFEFE"/>
<path transform="translate(797,85)" d="m0 0 17 1 21 5 20 7 23 11 14 8 21 13 12 8 14 10 14 11 13 11 13 10 8 7-1 4-20 20-9 11-11 14-12 14-11 14-13 16-10 13-6 7-10 2-44 6-50 9-30 7h-7l-3-4-9-52-4-40v-42l2-23 5-25 6-18 8-15 10-11 12-6 7-2z" fill="#FEFEFE"/>
<path transform="translate(1287,724)" d="m0 0h7l3 4 4 18 5 33 4 36v61l-4 27-7 22-7 14-8 10-7 6-10 5-14 4h-10l-20-4-20-6-26-11-22-12-16-10-16-11-19-14-16-13-13-11-11-9-1-6 7-8 12-13 9-11 12-14 9-11 14-18 9-11 10-13 6-8 7-3 59-8 41-8z" fill="#FEFEFE"/>
<path transform="translate(1013,420)" d="m0 0h18l19 4 19 7 16 9 14 12 11 15 8 15 7 19 2 16v17l-3 17-6 16-7 12-9 12-17 17-14 8-13 6-23 7-13 1-22-4-17-6-15-8-10-8-10-9-8-10-9-15-6-15-4-15-1-7v-13l2-17 5-16 8-16 7-11 14-15 14-10 16-8 17-5z" fill="#01D8FF"/>
<path transform="translate(587,1100)" d="m0 0h62l18 1 14 3 14 7 9 9 7 14 2 7v16l-4 12-7 10-6 7-8 5-14 4 1 5 13 11 7 8 12 19 10 17 9 13v4l-3 1h-13l-22-1-6-5-11-18-17-25-8-10-8-8-11-5-8-2h-9l-1 2v70l-1 1h-22l-12-1-1-1 1-166 1-2z" fill="#01D8FF"/>
<path transform="translate(1386,1097)" d="m0 0h30l16 4 16 9 9 8 8 14 3 9v5l-5 4h-25l-5-3-9-14-10-5-12-3-11 1-10 5-6 7-1 7 4 6 10 5 45 14 12 5 11 8 9 10 6 12 2 7v15l-4 13-8 12-12 12-14 7-18 4h-30l-16-4-12-7-9-8-9-12-8-16-1-7 6-3 23-4 4 1 9 17 5 6 8 5 11 3h12l10-3 10-7 5-6 2-5-1-7-4-5-11-5-37-12-18-8-10-7v-2h-2l-7-9-5-10-2-7v-13l4-13 6-10 7-7 11-7 10-4z" fill="#01D8FF"/>
<path transform="translate(899,1143)" d="m0 0h11l10 2 13 5 9 6 6 7 4 13 1 67 3 16 3 9-1 5h-21l-9-2-5-8-1-2-6 1-14 10-9 3h-19l-9-3-9-7-8-10-4-8-2-12 4-14 5-10 7-6 18-7 26-7 14-4 3-2-1-8-6-5-8-3h-12l-8 5-8 8-5 2-20-1-5-2 1-7 7-10 10-10 10-6 15-4z" fill="#01D8FF"/>
<path transform="translate(770,1144)" d="m0 0h19l16 6 10 6 8 8 8 16 5 16v22l-2 3h-79l1 10 6 9 9 8 5 2h7l8-4 9-9 4-2h10l13 1 5 5v6l-6 8-11 9-11 7-10 3-5 1h-19l-14-3-8-4-9-8-7-8-6-9-3-9-1-5v-27l2-16 3-10 7-12 7-7 11-7 13-5z" fill="#01D8FF"/>
<path transform="translate(1298,1100)" d="m0 0h18l1 1v118l-3 19-5 12-9 11-11 8-8 4-8 2h-24l-12-3-9-6-7-6-7-11-6-16-1-4v-8l2-2 21-3h11l3 16 4 8 8 5 3 1h7l6-3 6-7 2-8 1-9v-115l2-3z" fill="#01D8FF"/>
<path transform="translate(1022,1143)" d="m0 0h12l12 3 17 9 9 10 9 12v5l-6 4-3 1-11 1h-10l-10-13-8-5-3-1h-11l-8 6-6 7-4 12-1 5v20l3 12 6 11 8 6 4 2h9l8-4h2l2-4 6-7 5-8 21 1 6 3 2 3-1 8-6 9-8 9-9 7-13 6-9 2h-18l-18-4-12-9-10-10-7-12-5-17-1-5v-13l3-16 6-16 7-10 8-8 16-8z" fill="#01D8FF"/>
<path transform="translate(1128,1107)" d="m0 0h3v40l1 1 16-1 5 4 1 3v12l-3 6-2 1-17 1-1 2v63l1 10h7l5-1h9l1 1v18l-4 5-5 2-12 1h-13l-12-5-7-8-4-9-1-6-1-70-5-5-8-6-3-11 4-4 11-4 1-1 1-17 3-5 21-13z" fill="#01D8FF"/>
<path transform="translate(1022,227)" d="m0 0 5 1 5 5 13 14 7 8 12 14 9 10 8 10 1 5h-92l-25 2 1-5 8-11 9-10 11-14 12-13 13-14z" fill="#FEFEFE"/>
<path transform="translate(1250,590)" d="m0 0 5 1 5 12 16 46 6 18v6l-16 4-60 12-6 2h-7l1-5 7-11 10-16 10-18 15-26 10-19z" fill="#FEFEFE"/>
<path transform="translate(848,357)" d="m0 0h7l-2 6-9 14-10 17-13 22-14 26-8 15-4 3-5-10-12-33-9-27-4-10v-5l13-3 25-5 28-6z" fill="#FEFEFE"/>
<path transform="translate(795,589)" d="m0 0 3 1 8 13 7 14 14 24 8 14 14 23 5 9-1 4-31-6-54-10-1-1v-7l12-38 8-21 7-18z" fill="#FEFEFE"/>
<path transform="translate(965,753)" d="m0 0 17 1h102l-2 4-12 14-10 11-8 10-10 11-7 8-8 8-1 2-5-1-10-11-7-8-10-11-9-11-10-11-7-8-3-5z" fill="#FEFEFE"/>
<path transform="translate(1193,357)" d="m0 0 12 2 70 14 6 3-1 9-13 37-13 38h-3l-8-14-10-19-14-24-16-27-9-13z" fill="#FEFEFE"/>
<path transform="translate(609,1130)" d="m0 0h24l30 1 8 3 4 6 1 3v14l-4 7-8 5-10 3-39 1-6-2-1-4v-36z" fill="#FEFEFE"/>
<path transform="translate(773,1168)" d="m0 0h8l10 5 7 6 6 10 2 4-1 4-3 1-28 1h-17l-3-5 1-7 6-10 8-7z" fill="#FEFEFE"/>
<path transform="translate(910,1212)" d="m0 0 7 1 3 4v11l-3 8-5 6-9 6-6 2h-7l-6-3-6-8-2-6 1-6 7-5 21-8z" fill="#FEFEFE"/>
</svg>
