<?xml version="1.0" encoding="UTF-8"?>
<svg version="1.1" viewBox="0 0 2048 1183" width="824" height="476" xmlns="http://www.w3.org/2000/svg">
<path transform="translate(0)" d="m0 0h2048v1183h-2048z" fill="#FDFDFD"/>
<path transform="translate(703,299)" d="m0 0 2 1 5 13 8 11 12 12 16 11 16 9 21 10 28 10 32 9 33 7 39 6 39 4 27 2h88l39-3 41-5 39-7 40-10 32-11 24-11 15-8 17-12 12-11 10-14 4-8h1l1 438v120l-1 51-2 8-6 12-8 10-12 11-11 8-16 9-25 12-25 9-27 8-29 7-40 7-45 5-26 2h-22l-113-4-22-2-32-5-34-7-30-8-24-8-26-11-20-11-17-12-12-11-10-14-4-10-1-92z" fill="#0F95C0"/>
<path transform="translate(703,299)" d="m0 0 2 1 5 13 8 11 12 12 16 11 16 9 21 10 28 10 32 9 33 7 39 6 39 4 40 3 26 1v151l-1 14-20 7-15 8-11 9-9 10-9 14-7 16-4 15-1 7v37l5 21 6 14 7 11 11 12 9 8 16 9 24 8 1 2h-2v235l3 3 9 1v1h-42l-54-2-22-2-32-5-34-7-30-8-24-8-26-11-20-11-17-12-12-11-10-14-4-10-1-92z" fill="#116BC0"/>
<path transform="translate(983,207)" d="m0 0h83l40 3 37 5 32 6 31 8 20 7 20 9 14 9 10 9 6 9 2 6v10l-4 10-8 9-14 10-16 8-9 4-5 1-16 6-30 8-32 6-37 5-37 3h-92l-38-3-38-5-35-7-29-8-13-5v-1l-9-2-17-8-12-8-11-10-6-10-1-11 3-10 7-9 11-9 17-10 20-8 21-7 24-6 32-6 37-5z" fill="#C1C249"/>
<path transform="translate(1027,569)" d="m0 0h31l18 4 12 5 12 7 13 11 8 10 8 13 7 19 3 15 1 9v21l-3 19-5 16-8 16-7 10-8 9-13 10-14 7h-2l6 7 8 7 7 7 8 7 17 16 10 9v2h-60l-13-14-9-11-8-8-7-8-4-5-15-2-15-4-14-6-11-7-10-9-7-7-7-10-7-14-5-16-2-10v-37l3-16 6-16 9-16 11-13 10-9 14-8 12-5 14-4z" fill="#FEFEFE"/>
<path transform="translate(848,569)" d="m0 0h35l22 4 8 3 1 42-2 1-17-8-9-3-10-2h-15l-13 4-5 5-3 6v9l3 7 5 5 10 7 27 14 12 8 13 11 7 10 4 10 1 5v21l-3 12-6 11-8 9-10 7-13 6-17 4-8 1h-27l-18-3-18-6-4-3v-17l1-28 11 7 15 8 15 4 8 1h10l12-3 6-4 5-10-1-9-6-9-16-10-23-12-11-7-10-9-6-7-6-11-4-16v-11l3-15 5-10 11-12 10-7 10-5 13-4z" fill="#FDFDFD"/>
<path transform="translate(991,300)" d="m0 0h59l46 3 35 4 35 6 32 8 21 6 3 3-16 6-30 8-32 6-37 5-37 3h-92l-38-3-38-5-35-7-29-8-13-5 1-2 25-8 35-8 38-6 39-4z" fill="#77C01A"/>
<path transform="translate(1174,572)" d="m0 0h44l1 1v164h67l8 1v37h-120l-1-1v-201z" fill="#FEFEFE"/>
<path transform="translate(1032,609)" d="m0 0h19l11 4 9 6 7 7 8 14 4 14 1 6v26l-3 14-5 13-9 12-11 8-10 4-4 1h-14l-13-3-9-5-10-10-7-12-4-12-2-12v-21l4-18 5-12 9-12 10-7 4-2z" fill="#0F95C0"/>
<path transform="translate(1016,615)" d="m0 0h3l1 118-6-2-11-11-7-12-4-12-2-12v-21l4-18 5-12 9-12z" fill="#116CC0"/>
<path transform="translate(1342,304)" d="m0 0h1l-1 15-2-1-3 1-3 5-8 7-7 7-10 7-14 9-15 8-28 12-25 8-39 10-26 5-36 5-29 3-18 1h-20v-1l49-4 41-5 39-7 40-10 32-11 24-11 15-8 17-12 12-11 10-14z" fill="#1177C0"/>
<path transform="translate(1141,666)" d="m0 0h1v17l-2 12-4 18-6 15-8 13-9 11-9 7-5 4h-2v-2l9-7 5-4 9-11 8-14 6-15 4-19 1-8 1-1z" fill="#1177C0"/>
<path transform="translate(1091,765)" d="m0 0 2 1-7 5h-2l7 8 9 9 2 1v2l4 2 12 11 15 15h-3l-13-13-8-7-17-16-12-11v-2z" fill="#1178C0"/>
<path transform="translate(1024,778)" d="m0 0h11l11 12 7 8 10 11 7 8 5 6-1 2-10-10-9-11-9-10-10-10v-2l-12-3z" fill="#1178C0"/>
<path transform="translate(1087,577)" d="m0 0 5 1 16 11 9 9 7 10 6 10 5 12v2h-2l-6-15-10-15-8-9-12-9-10-6z" fill="#1177C0"/>
<path transform="translate(1342,304)" d="m0 0h1l-1 15-2-1-3 1-3 5-6 5-2-1 8-10z" fill="#1172C0"/>
<path transform="translate(1054,801)" d="m0 0h2l9 11 10 11-1 2-10-10-9-11z" fill="#1175C0"/>
<path transform="translate(1066,617)" d="m0 0 5 2 7 7 1 4-5-4v-2l-4-2z" fill="#1178C0"/>
<path transform="translate(1077,718)" d="m0 0v3l-5 6-4 3-3-1z" fill="#1174C0"/>
<path transform="translate(1132,719)" d="m0 0 1 2-6 12h-2l2-6z" fill="#1173C0"/>
</svg>
