<?xml version="1.0" encoding="UTF-8"?>
<svg version="1.1" viewBox="0 0 2048 505" width="2000" height="494" xmlns="http://www.w3.org/2000/svg">
<path transform="translate(1201,89)" d="m0 0h89l20 52 17 44 1 2 26-88 3-10h94l1 18 1 144-1 1h-50l-1-26-2-100-32 95-11 31h-47l-19-43-16-37-17-39-4-9v-2l-22 1 21 6 1 1v122h-51l-1-67z" fill="#359BCC"/>
<path transform="translate(1e3 89)" d="m0 0h158v38l-148 1 22 6 1 1 1 28 1 47 3 3h74l1-2 1-24h-24l-7-3-5-4-4-7-1-10v-9h90v71l-4 11-9 10-8 4-7 2h-127l-9-4-8-7-5-8-1-3-1-39v-86l4-8 7-6z" fill="#349BCC"/>
<path transform="translate(1895,89)" d="m0 0h125l10 4 8 6 6 8 3 8 1 17v120h-49l-1-45-70-1v46h-49l-1-94v-51l3-8 5-6 5-3zm7 38 3 2 21 6h2v33h70l1-4-1-33-4-4z" fill="#349BCC"/>
<path transform="translate(1510,89)" d="m0 0h125l11 4 10 9 6 12 1 22v116h-49v-46h-71l1 22v24h-50l-1-144 3-9 5-6zm7 38 3 2 21 6h2v33h70v-37l-4-4z" fill="#349BCC"/>
<path transform="translate(530,89)" d="m0 0h120l11 4 9 7 6 8 4 9v21h-49l-2-9-2-1h-89l21 6 2 2 1 11 3 3 79 1 11 2 10 6 5 5 5 6 4 9 1 5v49l-4 10-7 6-8 3h-119l-10-4-8-6-7-8-4-9-1-4v-18h49l2 8 3 2h87l-21-6-2-3-1-14-3-2-83-1-11-4-6-4-5-4-7-11-2-6-1-18v-31l3-9 5-6 7-4z" fill="#349BCC"/>
<path transform="translate(699,89)" d="m0 0h166l1 7v31l-78 1 22 6 2 2v116h-55l-1-125h-57z" fill="#349BCC"/>
<path transform="translate(1681,89)" d="m0 0h167v38l-77 1 21 6 2 1 1 116-1 1h-54l-1-54v-71h-57l-1-7z" fill="#349BCC"/>
<path transform="translate(101,217)" d="m0 0h185v70h-185z" fill="#79BF49"/>
<path transform="translate(324,217)" d="m0 0h48v42l-3 25-5 23-10 30-9 20-9 17-14 21-11 14-11 12-7 8-8 7-10 9-16 12-19 12-23 12-20 8-22 7-23 5-23 3-20 1 3-2 23-6 23-8 29-14 18-11 15-11 11-9 10-9 15-15 9-11 12-16 11-18 12-23 10-26 7-26 4-24 2-28z" fill="#359BCC"/>
<path transform="translate(261)" d="m0 0h15l-4 2-22 6-20 7-24 11-14 8-18 12-13 10-10 9-8 7-8 8-7 8-12 15-12 18-12 21-9 20-10 30-5 23-3 22-2 50h-48v-42l3-24 5-23 7-23 11-26 12-22 11-16 10-13 12-14 16-16 11-9 17-13 21-13 24-12 24-9 22-6 30-5z" fill="#359BCC"/>
<path transform="translate(171,313)" d="m0 0h46l-3 21-5 20-8 21-8 16-10 16-10 13-9 10-14 14-13 10-15 10-15 8-20 8-21 6-24 4h-40l1-2 25-5 24-8 19-9 16-10 12-9 14-12 8-8 9-11 11-15 12-22 8-20 6-21z" fill="#7ABF4A"/>
<path transform="translate(899,89)" d="m0 0h49v38l-22 1 21 6 2 2v116h-49l-1-109z" fill="#349BCC"/>
<path transform="translate(1898,297)" d="m0 0h22l11 28 1-28h12v40h-21l-6-14-5-13-1 11v15l-1 1h-12zm8 8 3 2 2-1z" fill="#3B9ECD"/>
<path transform="translate(927,297)" d="m0 0h21l4 8 7 18 1-25 1-1h12v39l-1 1h-20l-4-8-9-23v1 30h-12z" fill="#389DCD"/>
<path transform="translate(2009,297)" d="m0 0h34l5 5v7h-12l-1-2h-18l2 1 1 3 22 1 6 6v15l-5 4h-29l-5-3-3-5 1-5 12 1v2l17-1-1-5h-22l-6-5-1-3v-11z" fill="#389DCD"/>
<path transform="translate(1313,297)" d="m0 0h36l4 4v33l-4 3h-32l-5-3-2-4v-27l2-5zm6 9 3 2 1 19h22l-3-2-1-19z" fill="#379CCC"/>
<path transform="translate(1038,297)" d="m0 0h36l4 5v32l-4 3h-32l-5-3-2-4v-29zm6 9 3 3 1 18h22l-3-2-1-18-1-1z" fill="#399DCD"/>
<path transform="translate(1795,297)" d="m0 0h36l5 6v19l-1 13-4 2h-32l-6-5v-33zm6 9 3 2 1 19h23l-4-2-1-19z" fill="#379CCC"/>
<path transform="translate(1211,297)" d="m0 0h33l5 5v7h-11l-1-3-18 1 2 4 22 1 5 4 1 2v15l-2 3-3 1h-29l-5-3-2-3v-6h12v2l17-1-1-4-21-1-5-3-2-3v-15z" fill="#349BCC"/>
<path transform="translate(819,297)" d="m0 0h12v15l19-1 1-14h12v39l-1 1h-11l-1-15h-21l2 1v14h-12z" fill="#349BCC"/>
<path transform="translate(1513,297)" d="m0 0h12v29l17 1v-30h13v29l-2 10-3 1h-30l-5-3-2-3z" fill="#359BCC"/>
<path transform="translate(715,297)" d="m0 0h36l5 5v8h-12l-1-3h-19l2 4v16h17l1-4h11l1 1v9l-2 3-3 1h-32l-4-2-2-3v-32z" fill="#369CCC"/>
<path transform="translate(613,297)" d="m0 0h37v9l-26 1 1 5h21v9h-21v6h25v10h-31l-6-5z" fill="#349BCC"/>
<path transform="translate(511,297)" d="m0 0h41v9l-15 1 2 1v28l-1 1h-13v-31h-14z" fill="#3B9ECD"/>
<path transform="translate(1416,297)" d="m0 0h14v28l-1 1 25 1v10h-38z" fill="#349BCC"/>
<path transform="translate(1615,297)" d="m0 0h41v8l-1 1-14 1 1 1v29h-13v-31h-14z" fill="#349BCC"/>
<path transform="translate(1383,398)" d="m0 0h8l1 12 1 5h2l2-17h7l1 11 2 5 2-4 1-12h8v12l-7 14-1 1h-6l-4-6-3 6h-7l-7-15z" fill="#7CC04D"/>
<path transform="translate(1884,397)" d="m0 0 9 1 6 5 2 4v9l-4 7-6 3h-8l-5-3-4-5-1-3v-7l3-6 5-4zm0 8-3 4v6l5 4 5-2 2-2v-7l-3-3z" fill="#7DC04E"/>
<path transform="translate(1703,397)" d="m0 0 9 1 6 5 2 5v7l-3 6-5 4-2 1h-8l-7-4-3-6v-9l4-6 4-3zm0 8-3 3v7l2 3 5 1 5-4v-7l-3-3z" fill="#7CC04D"/>
<path transform="translate(1208,398)" d="m0 0h9v9h9v-9h9v27h-9v-10l-9 1v9h-9z" fill="#84C459"/>
<path transform="translate(1718,297)" d="m0 0h12v9 2 29h-12z" fill="#349BCC"/>
<path transform="translate(1818,397)" d="m0 0 9 1 4 3-1 5-3 2-3-2h-6l-2 3v6l2 2h7v-6h8l1 14-17 1-6-4-3-4-1-3v-7l3-6 5-4z" fill="#7EC150"/>
<path transform="translate(1467,397)" d="m0 0 7 1 4 8 6 16v3h-8l-2-3-8-1-1 4h-8l3-11 6-16zm3 11-2 6h4l-1-6z" fill="#7DC14E"/>
<path transform="translate(1276,398)" d="m0 0h18l1 1v6l-11-1v4h10l1 2-1 5h-10l1 3h10l1 4-1 3h-19z" fill="#7BC04B"/>
<path transform="translate(1523,398)" d="m0 0h8l1 8 3 3 2-3 1-8h8l1 6-3 7-5 8v6h-9v-7l-7-11z" fill="#7CC04D"/>
<path transform="translate(1633,398)" d="m0 0h20v6h-6v21h-8v-21l-6 1-1-2z" fill="#7ABF4B"/>
<path transform="translate(1149,398)" d="m0 0h20v6l-6 1v20h-9v-20h-6z" fill="#81C254"/>
<path transform="translate(2042,416)" d="m0 0 4 1 2 2-1 5-2 2-5-1-2-5z" fill="#80C253"/>
<path transform="translate(1944,416)" d="m0 0 5 1 1 6-3 3-5-1-1-1v-6z" fill="#7ABF4B"/>
<path transform="translate(1993,416)" d="m0 0 4 1 2 2-1 5-2 2-5-1-1-1v-6z" fill="#7CC04E"/>
</svg>
